<svg width="93" height="35" viewBox="0 0 93 35" fill="none" xmlns="http://www.w3.org/2000/svg">
<path fill-rule="evenodd" clip-rule="evenodd" d="M4.14493 0.17232C4.8188 0.397736 5.76403 1.36436 5.96959 2.03818C6.19645 2.78159 6.14359 3.67216 5.83385 4.32379C5.51657 4.99136 4.79537 5.67744 4.1819 5.89534L3.75631 6.04643V7.00577V7.96512H8.87745H13.9986V9.55459V11.1441H9.98362H5.96853L5.9677 12.8202L5.96676 14.4964L9.4529 14.527L12.939 14.5577V16.2899V18.0221H9.43666L5.93427 18.022V21.4612V24.9002H4.10949H2.28472L2.25458 15.4638L2.22444 6.02747L1.84348 5.87245C1.25307 5.63235 0.568487 4.96027 0.266045 4.32379C-0.207808 3.32675 -0.0307451 1.86883 0.654546 1.12531C0.754497 1.01688 0.796408 0.864981 0.747551 0.787531C0.697164 0.707421 0.708112 0.676557 0.772862 0.715861C0.908602 0.798166 1.54774 0.41045 1.46157 0.298088C1.42872 0.255202 1.43272 0.241793 1.4704 0.268265C1.50819 0.294737 1.70691 0.244683 1.91187 0.157175C2.41645 -0.0584147 3.47694 -0.0511307 4.14493 0.17232ZM2.27471 1.5403C1.43225 1.90051 1.10215 2.84621 1.50583 3.74256C2.10483 5.07193 4.16989 4.9635 4.59182 3.58049C5.02894 2.14789 3.66425 0.946361 2.27471 1.5403ZM91.3017 5.97776C91.9254 6.29057 92.6778 7.13027 92.8552 7.71161C93.3099 9.20178 92.6668 10.7173 91.3014 11.3733C89.6768 12.1537 87.7106 11.4509 87.023 9.84404L86.813 9.3531L86.0822 9.35275L85.3513 9.35229L85.3169 10.2229L85.2826 11.0934L80.544 11.092L75.8055 11.0907V12.8202V14.5498L80.544 14.5488L85.2826 14.5476L85.3132 19.7529L85.3438 24.958H78.7499H72.1559V23.1662V21.3745H76.9239H81.6919V19.6983V18.0221H76.9239H72.1559V13.0124V8.00257L76.4134 7.92604C78.7549 7.88397 82.0528 7.84779 83.742 7.84571L86.813 7.84178L87.1662 7.24749C87.5675 6.57205 88.1632 6.05926 88.8293 5.81581C89.4574 5.58623 90.6807 5.66646 91.3017 5.97776ZM89.3907 7.04854C88.2767 7.36944 87.8341 8.80887 88.5813 9.68071C89.5841 10.8509 91.581 10.154 91.581 8.63374C91.581 7.56469 90.4473 6.74417 89.3907 7.04854ZM26.6462 8.13331C28.8851 8.55397 30.5665 10.0683 31.1439 12.1844C31.3476 12.9307 31.3461 14.4484 31.1409 15.2052C30.7375 16.6928 29.6461 18.0205 28.2637 18.7058C27.1267 19.2693 26.3165 19.4057 24.0937 19.4076L22.1218 19.4093V22.1837V24.958H20.1793H18.2368V16.4616V7.96512H21.9937C24.7934 7.96512 25.9788 8.008 26.6462 8.13331ZM48.6105 9.55459V11.1441H43.8719H39.1334L39.1028 16.4327L39.0722 21.7213H43.8413H48.6105V23.3396V24.958H42.0472H35.4838L35.5148 16.4616L35.5458 7.96512H42.0781H48.6105V9.55459ZM66.9761 9.55459V11.1441L62.2081 11.1097L57.44 11.0754V16.3983V21.7213H62.208H66.9759V23.3396V24.958H61.1484H55.3209V26.103V27.2479L55.9592 27.6016C57.0747 28.2198 57.641 29.2659 57.5271 30.4981C57.375 32.1453 56.0884 33.312 54.4344 33.3027C52.7014 33.2928 51.4018 31.9702 51.4151 30.2297C51.418 29.8417 51.5056 29.3255 51.6097 29.0829C51.8866 28.4369 52.6703 27.6586 53.27 27.4338L53.7905 27.2385V17.6018V7.96512H60.3832H66.9759L66.9761 9.55459ZM22.0967 13.6901L22.1305 16.3142L23.7449 16.2693C25.1353 16.2307 25.4369 16.1874 25.9186 15.957C27.8342 15.0409 27.8617 12.3897 25.9659 11.4031C25.5412 11.182 25.2529 11.1431 23.77 11.1073L22.0629 11.066L22.0967 13.6901ZM47.5509 16.4616V18.0221H44.6752H41.7993L41.797 16.4616L41.7945 14.901H44.6727H47.5509V16.4616ZM6.46404 26.8521C8.14731 27.4754 8.94809 28.743 8.95233 30.7915C8.9561 32.5887 8.24761 33.8396 6.84242 34.5173C6.20328 34.8254 6.07436 34.8436 4.25665 34.8805L2.34358 34.9193V30.7355V26.5516L4.13892 26.6038C5.43357 26.6415 6.08202 26.7107 6.46404 26.8521ZM13.9612 30.1874L16.5297 33.7985L16.5608 30.1874L16.5919 26.5764H16.8846H17.1772V30.7452V34.9141L16.8349 34.8778C16.5315 34.8458 16.2054 34.4389 13.98 31.3159L11.4675 27.7902L11.4364 31.3448L11.4052 34.8994H11.0538H10.7022V30.7379V26.5764H11.0474C11.3669 26.5764 11.5832 26.8444 13.9612 30.1874ZM19.8873 29.0328C19.8901 32.0109 19.991 32.8167 20.4386 33.4386C21.2671 34.5898 23.1453 34.7593 24.2469 33.7822C24.9817 33.1303 25.065 32.6832 25.065 29.3875V26.5764H25.4283H25.7916L25.7408 29.6108C25.6843 32.9882 25.6394 33.233 24.9291 34.0252C24.2575 34.7743 23.4918 35.054 22.2819 34.9916C21.4653 34.9495 21.2236 34.8877 20.7498 34.6C20.1015 34.2065 19.6022 33.55 19.4219 32.8541C19.3494 32.5744 19.2963 31.1448 19.2963 29.4729V26.5764H19.5906H19.885L19.8873 29.0328ZM2.98096 27.2604C2.95412 27.2868 2.93222 28.8864 2.93222 30.815V34.3214H4.13116C5.83891 34.3214 6.59119 34.0935 7.35347 33.3451C8.08444 32.6276 8.294 32.0087 8.2761 30.6208C8.26551 29.8039 8.20841 29.5228 7.93987 28.9654C7.62095 28.3035 7.04032 27.7593 6.34631 27.4718C6.05835 27.3526 3.07714 27.1652 2.98096 27.2604ZM53.9954 28.7065C53.4498 28.898 53.2349 29.0682 53.0175 29.4811C52.6247 30.227 52.9465 31.2963 53.68 31.6827C55.0224 32.3896 56.4938 31.2665 56.1201 29.8204C55.9871 29.3061 55.3473 28.6571 54.9733 28.6571C54.8513 28.6571 54.681 28.6333 54.5948 28.6042C54.5085 28.5751 54.2388 28.6211 53.9954 28.7065Z" fill="#14171F"/>
</svg>
